HIERARCHY
ROOT Hips
{
 OFFSET 0.000000 0.000000 0.000000
 CHANNELS 6 Xposition Yposition Zposition Yrotation Xrotation Zrotation
 JOINT Chest
 {
  OFFSET 0.000000 10.388337 0.005184
  CHANNELS 3 Yrotation Xrotation Zrotation
  JOINT Chest2
  {
   OFFSET 0.000000 10.458247 -0.010579
   CHANNELS 3 Yrotation Xrotation Zrotation
   JOINT Chest3
   {
    OFFSET 0.000000 10.415828 0.000000
    CHANNELS 3 Yrotation Xrotation Zrotation
    JOINT Chest4
    {
     OFFSET 0.000000 10.405206 0.000000
     CHANNELS 3 Yrotation Xrotation Zrotation
     JOINT Neck
     {
      OFFSET 0.000000 15.720090 0.000000
      CHANNELS 3 Yrotation Xrotation Zrotation
      JOINT Head
      {
       OFFSET 0.000000 9.732643 -0.022378
       CHANNELS 3 Yrotation Xrotation Zrotation
       End Site
       {
        OFFSET 0.000000 18.603619 -0.011814
       }
      }
     }
     JOINT RightCollar
     {
      OFFSET -3.167735 10.388953 0.000000
      CHANNELS 3 Yrotation Xrotation Zrotation
      JOINT RightShoulder
      {
       OFFSET -14.584825 0.000000 0.000000
       CHANNELS 3 Yrotation Xrotation Zrotation
       JOINT RightElbow
       {
        OFFSET 0.000000 -31.921689 0.000000
        CHANNELS 3 Yrotation Xrotation Zrotation
        JOINT RightWrist
        {
         OFFSET 0.000000 -25.835217 0.000000
         CHANNELS 3 Yrotation Xrotation Zrotation
         End Site
         {
          OFFSET 0.000000 -19.128920 0.000000
         }
        }
       }
      }
     }
     JOINT LeftCollar
     {
      OFFSET 3.167735 10.388953 0.000000
      CHANNELS 3 Yrotation Xrotation Zrotation
      JOINT LeftShoulder
      {
       OFFSET 14.584825 0.000000 0.000000
       CHANNELS 3 Yrotation Xrotation Zrotation
       JOINT LeftElbow
       {
        OFFSET 0.000000 -31.921689 0.000000
        CHANNELS 3 Yrotation Xrotation Zrotation
        JOINT LeftWrist
        {
         OFFSET 0.000000 -25.835217 0.000000
         CHANNELS 3 Yrotation Xrotation Zrotation
         End Site
         {
          OFFSET 0.000000 -19.128920 0.000000
         }
        }
       }
      }
     }
    }
   }
  }
 }
 JOINT RightHip
 {
  OFFSET -8.403278 -0.025659 -0.002592
  CHANNELS 3 Yrotation Xrotation Zrotation
  JOINT RightKnee
  {
   OFFSET 0.000000 -44.040977 0.002477
   CHANNELS 3 Yrotation Xrotation Zrotation
   JOINT RightAnkle
   {
    OFFSET 0.000000 -42.951162 0.004189
    CHANNELS 3 Yrotation Xrotation Zrotation
    JOINT RightToe
    {
     OFFSET 0.000000 -5.494238 12.197485
     CHANNELS 3 Yrotation Xrotation Zrotation
     End Site
     {
      OFFSET 0.000000 -1.538716 6.371628
     }
    }
   }
  }
 }
 JOINT LeftHip
 {
  OFFSET 8.403278 -0.025659 -0.002592
  CHANNELS 3 Yrotation Xrotation Zrotation
  JOINT LeftKnee
  {
   OFFSET 0.000000 -44.040977 0.002477
   CHANNELS 3 Yrotation Xrotation Zrotation
   JOINT LeftAnkle
   {
    OFFSET 0.000000 -42.951162 0.004189
    CHANNELS 3 Yrotation Xrotation Zrotation
    JOINT LeftToe
    {
     OFFSET 0.000000 -5.494238 12.197485
     CHANNELS 3 Yrotation Xrotation Zrotation
     End Site
     {
      OFFSET 0.000000 -1.538716 6.371628
     }
    }
   }
  }
 }
}
MOTION
Frames: 13
Frame Time: 0.008333
-35.844492 85.974000 644.827013 119.066617 4.037976 -4.744936 6.432623 3.520129 -17.172962 0.653792 0.359552 -1.649220 1.082559 0.609293 -2.744415 5.078514 3.551301 -13.622386 1.042019 13.405922 4.397956 0.223288 -10.841449 7.896776 8.780067 -15.506865 -15.143472 15.384634 -20.911940 -68.001348 1.701932 -37.419070 14.428551 -8.129346 -5.594168 11.672670 16.118556 -6.424702 16.364525 14.936563 -9.213244 26.568952 77.880466 -34.156566 -129.720452 7.556020 -1.027629 -19.224065 -11.570439 15.184620 10.504966 -6.088888 14.669881 0.731181 -33.691310 -22.825354 0.167590 -0.196700 -4.370863 0.891471 -14.507663 -36.730855 19.328684 12.516046 37.917850 6.177326 -26.837785 -0.790811 -8.993857 0.389879 -1.626235 0.929845
-35.396667 85.867798 644.540553 121.717219 5.012358 -4.258304 7.073174 4.045013 -17.715168 0.792370 0.431771 -1.840433 1.304206 0.729013 -3.045221 5.720641 3.986730 -14.120344 -0.167782 12.992526 4.201976 -2.012892 -11.539619 8.030506 9.397600 -14.599371 -16.411314 17.578728 -17.014036 -70.673615 6.126509 -28.470049 9.707347 -8.757636 -6.839108 12.670116 16.374484 -6.717963 16.066285 14.964620 -10.625678 28.271120 76.632183 -34.495322 -128.773389 7.442064 -0.913258 -19.248499 -12.158561 14.782852 10.947280 -6.074215 14.250744 0.606030 -34.209769 -22.541437 -0.169125 -0.222821 -4.455353 0.981601 -15.003497 -37.635451 18.414097 12.493725 37.199128 5.854337 -27.269346 -0.045125 -8.734293 0.604431 -1.405936 1.055212
-34.962006 85.732840 644.213361 124.560173 5.810027 -3.664905 7.776372 4.674437 -18.093784 0.955001 0.522085 -2.028570 1.562631 0.878136 -3.337497 6.434604 4.512081 -14.508606 -1.481861 12.648700 3.917220 -4.415059 -12.093923 8.045907 9.424630 -13.475087 -17.266467 20.184335 -12.601333 -71.896864 10.465143 -19.229519 4.807343 -8.584466 -5.204286 14.181537 16.449746 -6.510507 16.067374 15.006118 -11.963565 29.510363 75.212447 -34.737518 -127.977280 7.378173 -0.862969 -19.258495 -12.788164 14.407794 11.271577 -5.980033 14.056495 0.560065 -34.808484 -22.434154 -0.469722 -0.232737 -4.412595 1.032675 -15.353091 -38.408427 17.256741 12.549106 36.535481 5.547100 -27.461801 0.694146 -8.344349 0.750007 -1.174180 1.146898
-34.535723 85.573403 643.859749 127.588687 6.455639 -2.971975 8.493814 5.316091 -18.337565 1.139188 0.623695 -2.195291 1.854024 1.045229 -3.592417 7.226148 5.076562 -14.735426 -2.828838 12.434355 3.557336 -6.844506 -12.399789 7.929866 9.015964 -12.005384 -17.695010 22.467435 -8.052280 -71.379210 14.253775 -10.353179 -0.191605 -8.097246 -2.231023 15.749247 16.486157 -5.585952 16.487785 15.064266 -13.225453 30.093724 73.772525 -34.954325 -127.400103 7.341774 -0.891529 -19.226928 -13.446732 14.041292 11.499134 -5.903494 14.062079 0.577207 -35.407012 -22.538642 -0.718327 -0.177595 -4.141605 1.831006 -15.510725 -39.055841 15.848226 12.695552 35.890337 5.263652 -27.431390 1.342413 -7.804195 0.800599 -0.850246 1.195339
-34.107919 85.397190 643.503047 130.646326 7.000034 -2.263573 9.176375 5.907197 -18.453853 1.331021 0.726268 -2.327785 2.156430 1.213196 -3.790972 8.037468 5.617751 -14.798775 -4.068843 12.323413 3.178046 -9.055889 -12.517707 7.726367 8.554502 -10.289453 -17.742591 23.323762 -4.234335 -69.842870 17.181399 -2.732727 -4.931739 -8.242789 0.562881 16.555745 16.676384 -3.965776 17.296290 15.216698 -14.400641 30.064938 72.419155 -35.152320 -127.073517 7.330404 -0.972803 -19.169982 -14.020979 13.686671 11.710246 -5.925447 14.173482 0.618704 -35.763368 -22.770150 -0.991365 -0.024958 -3.748433 4.022123 -15.389028 -39.593553 14.298081 13.006992 35.243828 5.045120 -27.356677 1.812439 -7.130157 0.801221 -0.388407 1.213436
-33.676017 85.213749 643.162568 133.644226 7.539532 -1.587096 9.712293 6.404965 -18.487292 1.508136 0.821355 -2.420709 2.434702 1.368213 -3.926648 8.771308 6.097103 -14.737483 -5.086477 12.241134 2.851789 -10.864781 -12.594984 7.530245 8.195491 -8.520583 -17.489308 22.421412 -2.097423 -68.219245 18.765872 3.315576 -9.494765 -9.693443 1.784289 16.259260 17.152960 -1.905485 18.317348 15.456793 -15.353865 29.681022 71.242975 -35.292165 -126.978727 7.373263 -1.029080 -19.154161 -14.484322 13.283315 11.971102 -6.033810 14.329622 0.658833 -35.889121 -23.037700 -1.299412 0.150298 -3.471727 6.533538 -15.016818 -40.081588 12.723027 13.570046 34.581563 4.942503 -27.515070 1.998980 -6.361700 0.806293 0.265021 1.210946
-33.254661 85.033703 642.848899 136.670681 8.208839 -0.879405 9.893505 6.758495 -18.574537 1.644601 0.905188 -2.473234 2.648343 1.504264 -4.000176 9.321095 6.512651 -14.603397 -5.841806 12.119579 2.642022 -12.228800 -12.757158 7.454291 7.921696 -6.915131 -17.044759 20.342903 -1.932168 -66.902013 17.924240 7.691742 -13.958734 -11.955241 0.690785 15.152336 17.934403 0.170003 19.261819 15.697017 -15.835826 29.363650 70.254081 -35.293357 -126.989191 7.488344 -0.938135 -19.273515 -14.968904 12.667255 12.260789 -6.157140 14.579665 0.705659 -35.976555 -23.397124 -1.581994 0.291337 -3.287349 8.511834 -14.511791 -40.649589 11.098799 14.385912 33.880984 4.996200 -28.081336 1.785852 -5.520580 0.807968 1.204367 1.165505
-32.839744 84.864292 642.561983 139.727367 8.996472 -0.135917 9.663350 7.023194 -18.770959 1.719232 0.977029 -2.489682 2.764381 1.620369 -4.019953 9.601070 6.879714 -14.451469 -6.338880 11.916147 2.564556 -13.168207 -13.081780 7.537611 7.819266 -5.720222 -16.553815 17.703501 -3.266631 -65.773583 14.349474 9.749430 -17.934209 -13.921818 -1.761300 13.899605 18.965680 1.831800 19.788897 15.842329 -15.631081 29.622311 69.358095 -35.069461 -126.915452 7.660729 -0.638871 -19.533735 -15.479626 11.845309 12.562940 -6.243695 14.951630 0.776576 -36.080392 -23.875956 -1.817212 0.418421 -3.080720 10.055334 -13.894321 -41.297130 9.390327 15.327621 33.152207 5.190875 -28.973392 1.266901 -4.572486 0.700620 2.331536 1.007953
-32.421862 84.710058 642.303863 142.764035 9.859399 0.581324 9.142939 7.236356 -19.025476 1.733683 1.038027 -2.478008 2.785795 1.718722 -3.998717 9.625872 7.214764 -14.306555 -6.655086 11.657674 2.580483 -13.811512 -13.515673 7.735086 7.918833 -5.094946 -16.131477 14.856266 -5.329137 -65.006676 9.581342 9.323163 -20.181134 -14.746848 -4.062668 13.039010 20.028762 2.803406 19.619444 15.902728 -14.575876 30.898947 68.478167 -34.611964 -126.676334 7.840584 -0.212403 -19.826618 -15.937043 10.927577 12.910430 -6.253813 15.363998 0.881094 -36.070440 -24.346224 -2.065460 0.555322 -2.852404 11.211308 -13.267604 -42.003737 7.688940 16.167809 32.472417 5.447515 -29.972096 0.577807 -3.573602 0.522099 3.479849 0.755918
-31.996690 84.573453 642.077036 145.782036 10.763207 1.218034 8.528496 7.383357 -19.243201 1.712878 1.087771 -2.446525 2.752232 1.798969 -3.948442 9.514613 7.513043 -14.156034 -6.927672 11.443075 2.652815 -14.391309 -13.864008 8.017692 8.022827 -4.912497 -15.858038 11.986378 -7.789138 -64.771749 5.959599 7.624230 -19.834681 -13.858408 -5.581433 12.597128 20.720047 3.146424 18.807942 16.214077 -12.623116 33.164781 67.637562 -34.099107 -126.364833 7.953754 0.099494 -19.983914 -16.308465 9.988039 13.343246 -6.160494 15.775544 1.020230 -35.896240 -24.734089 -2.347302 0.717397 -2.605102 12.014437 -12.870879 -42.789078 6.170987 16.645995 31.967161 5.666739 -30.862826 -0.193505 -2.671363 0.369738 4.516882 0.498404
-31.549001 84.453084 641.878516 148.699386 11.612685 1.659910 8.038002 7.472656 -19.277610 1.675863 1.119791 -2.398253 2.694166 1.850871 -3.873148 9.365437 7.737211 -13.984886 -7.224332 11.353772 2.773344 -15.020332 -13.968260 8.383550 7.973277 -4.782635 -15.845379 9.231527 -10.334108 -64.521532 4.935924 6.109534 -18.041007 -11.781752 -6.077375 12.526508 21.028247 3.397890 17.957971 17.125422 -10.162663 35.547516 66.939964 -33.878806 -126.055537 7.947118 0.071341 -19.868866 -16.462523 9.165827 13.951995 -5.988975 16.110511 1.172673 -35.626740 -24.899634 -2.642512 0.894133 -2.415520 12.497700 -12.913639 -43.611909 5.099655 16.542645 31.771694 5.739267 -31.451604 -0.912518 -2.031926 0.343117 5.279510 0.353513
-31.081383 84.351228 641.713994 151.471947 12.418243 1.847379 7.719653 7.456974 -19.085311 1.630349 1.128175 -2.333106 2.624055 1.864993 -3.772468 9.223858 7.855782 -13.785409 -7.540964 11.392176 2.955697 -15.693596 -13.821403 8.853710 7.837601 -4.383429 -16.143059 7.044715 -11.847246 -63.891678 6.144423 5.425458 -16.451415 -10.129372 -5.538130 12.853498 21.431385 4.068029 17.838253 18.432793 -7.773241 36.931800 66.485226 -34.239540 -125.707757 7.801749 -0.289621 -19.473032 -16.297651 8.451172 14.790982 -5.794731 16.332887 1.336251 -35.295097 -24.810508 -2.966800 1.077201 -2.288203 12.708785 -13.559349 -44.519702 4.708123 15.740307 31.989983 5.504409 -31.584482 -1.518471 -1.685010 0.491866 5.725974 0.378467
-30.601240 84.271448 641.580241 154.018019 13.170967 1.765873 7.622961 7.388021 -18.685017 1.590542 1.119672 -2.259478 2.563948 1.852130 -3.658616 9.143807 7.892799 -13.557270 -7.902513 11.507037 3.229982 -16.476260 -13.507255 9.501154 7.611057 -3.757061 -16.540133 6.126254 -11.510498 -63.134621 8.067449 5.584184 -15.524662 -9.852043 -4.331709 13.183412 22.133300 5.032690 18.627646 19.662989 -5.656239 37.059414 66.301851 -35.206670 -125.295899 7.529714 -0.778844 -18.906905 -15.715704 7.841897 15.827638 -5.619684 16.402041 1.542543 -34.900050 -24.464323 -3.362149 1.254755 -2.219312 12.696501 -14.752687 -45.522090 5.086879 14.345287 32.669661 4.851613 -31.404422 -1.881881 -1.470148 0.730972 5.780515 0.500267
